STARTFONT 2.1
FONT -FontForge-Venice_19-Regular-R-Normal--19-190-72-72-P-104-MacRoman-0
SIZE 19 72 72
FONTBOUNDINGBOX 256 19 0 -4
COMMENT "Generated by fontforge, http://fontforge.sourceforge.net"
STARTPROPERTIES 31
FOUNDRY "FontForge"
FAMILY_NAME "Venice_19"
WEIGHT_NAME "Regular"
SLANT "R"
SETWIDTH_NAME "Normal"
ADD_STYLE_NAME ""
PIXEL_SIZE 19
POINT_SIZE 190
RESOLUTION_X 72
RESOLUTION_Y 72
SPACING "P"
AVERAGE_WIDTH 104
CHARSET_REGISTRY "MacRoman"
CHARSET_ENCODING "0"
FONTNAME_REGISTRY ""
CHARSET_COLLECTIONS "MacRoman"
FONT_NAME "Venice_19"
FACE_NAME "Venice_19"
COPYRIGHT ""
FONT_VERSION "001.000"
FONT_ASCENT 15
FONT_DESCENT 4
UNDERLINE_POSITION -2
UNDERLINE_THICKNESS 1
X_HEIGHT 6
CAP_HEIGHT 9
RAW_ASCENT 800
RAW_DESCENT 200
NORM_SPACE 5
AVG_LOWERCASE_WIDTH 286
AVG_UPPERCASE_WIDTH 167
ENDPROPERTIES
CHARS 151
STARTCHAR space
ENCODING 32
SWIDTH 263 0
DWIDTH 5 0
BBX 1 1 5 -4
BITMAP
00
ENDCHAR
STARTCHAR exclam
ENCODING 33
SWIDTH 263 0
DWIDTH 5 0
BBX 2 10 2 0
BITMAP
C0
C0
C0
C0
C0
C0
C0
00
C0
C0
ENDCHAR
STARTCHAR quotedbl
ENCODING 34
SWIDTH 421 0
DWIDTH 8 0
BBX 4 3 2 7
BITMAP
90
90
90
ENDCHAR
STARTCHAR numbersign
ENCODING 35
SWIDTH 473 0
DWIDTH 9 0
BBX 8 8 0 2
BITMAP
12
12
7F
24
24
FE
48
48
ENDCHAR
STARTCHAR dollar
ENCODING 36
SWIDTH 421 0
DWIDTH 8 0
BBX 5 11 1 -1
BITMAP
20
70
A8
A0
E0
70
38
28
A8
70
20
ENDCHAR
STARTCHAR percent
ENCODING 37
SWIDTH 631 0
DWIDTH 12 0
BBX 9 10 1 0
BITMAP
6F80
9180
9300
9600
6C00
1B00
3480
6480
C480
8300
ENDCHAR
STARTCHAR ampersand
ENCODING 38
SWIDTH 684 0
DWIDTH 13 0
BBX 11 10 1 0
BITMAP
3800
4400
4C00
3800
31C0
6B20
C620
8640
8D00
78C0
ENDCHAR
STARTCHAR quotesingle
ENCODING 39
SWIDTH 263 0
DWIDTH 5 0
BBX 1 3 2 7
BITMAP
80
80
80
ENDCHAR
STARTCHAR parenleft
ENCODING 40
SWIDTH 368 0
DWIDTH 7 0
BBX 4 12 1 -1
BITMAP
10
20
60
40
C0
C0
C0
C0
40
60
20
10
ENDCHAR
STARTCHAR parenright
ENCODING 41
SWIDTH 368 0
DWIDTH 7 0
BBX 4 12 2 -1
BITMAP
80
40
60
20
30
30
30
30
20
60
40
80
ENDCHAR
STARTCHAR asterisk
ENCODING 42
SWIDTH 526 0
DWIDTH 10 0
BBX 6 5 2 6
BITMAP
48
30
FC
30
48
ENDCHAR
STARTCHAR plus
ENCODING 43
SWIDTH 473 0
DWIDTH 9 0
BBX 7 7 1 2
BITMAP
10
10
10
FE
10
10
10
ENDCHAR
STARTCHAR comma
ENCODING 44
SWIDTH 315 0
DWIDTH 6 0
BBX 2 4 2 -2
BITMAP
C0
C0
40
80
ENDCHAR
STARTCHAR hyphen
ENCODING 45
SWIDTH 473 0
DWIDTH 9 0
BBX 7 1 1 5
BITMAP
FE
ENDCHAR
STARTCHAR period
ENCODING 46
SWIDTH 315 0
DWIDTH 6 0
BBX 2 2 2 0
BITMAP
C0
C0
ENDCHAR
STARTCHAR slash
ENCODING 47
SWIDTH 421 0
DWIDTH 8 0
BBX 6 11 1 -1
BITMAP
04
0C
08
18
10
30
20
60
40
C0
80
ENDCHAR
STARTCHAR zero
ENCODING 48
SWIDTH 421 0
DWIDTH 8 0
BBX 6 10 1 0
BITMAP
78
CC
CC
CC
CC
CC
CC
CC
CC
78
ENDCHAR
STARTCHAR one
ENCODING 49
SWIDTH 421 0
DWIDTH 8 0
BBX 4 10 2 0
BITMAP
20
60
E0
60
60
60
60
60
60
F0
ENDCHAR
STARTCHAR two
ENCODING 50
SWIDTH 421 0
DWIDTH 8 0
BBX 7 10 0 0
BITMAP
3C
46
86
06
0C
18
30
60
C2
FC
ENDCHAR
STARTCHAR three
ENCODING 51
SWIDTH 421 0
DWIDTH 8 0
BBX 7 10 0 0
BITMAP
7E
8C
18
30
7C
06
46
86
8C
78
ENDCHAR
STARTCHAR four
ENCODING 52
SWIDTH 473 0
DWIDTH 9 0
BBX 8 10 0 0
BITMAP
04
0C
1C
2C
4C
8D
FE
0C
0C
1E
ENDCHAR
STARTCHAR five
ENCODING 53
SWIDTH 421 0
DWIDTH 8 0
BBX 6 10 1 0
BITMAP
F8
C4
C0
F0
18
0C
0C
0C
98
70
ENDCHAR
STARTCHAR six
ENCODING 54
SWIDTH 421 0
DWIDTH 8 0
BBX 6 10 1 0
BITMAP
38
44
C0
D8
EC
CC
CC
CC
CC
78
ENDCHAR
STARTCHAR seven
ENCODING 55
SWIDTH 421 0
DWIDTH 8 0
BBX 7 10 0 0
BITMAP
7E
86
06
0C
0C
18
18
30
30
30
ENDCHAR
STARTCHAR eight
ENCODING 56
SWIDTH 421 0
DWIDTH 8 0
BBX 6 10 1 0
BITMAP
78
CC
CC
CC
78
CC
CC
CC
CC
78
ENDCHAR
STARTCHAR nine
ENCODING 57
SWIDTH 421 0
DWIDTH 8 0
BBX 6 10 1 0
BITMAP
78
CC
CC
CC
CC
DC
6C
0C
88
70
ENDCHAR
STARTCHAR colon
ENCODING 58
SWIDTH 263 0
DWIDTH 5 0
BBX 2 7 2 0
BITMAP
C0
C0
00
00
00
C0
C0
ENDCHAR
STARTCHAR semicolon
ENCODING 59
SWIDTH 263 0
DWIDTH 5 0
BBX 2 9 2 -2
BITMAP
C0
C0
00
00
00
C0
C0
40
80
ENDCHAR
STARTCHAR less
ENCODING 60
SWIDTH 368 0
DWIDTH 7 0
BBX 5 7 1 1
BITMAP
18
30
60
C0
60
30
18
ENDCHAR
STARTCHAR equal
ENCODING 61
SWIDTH 421 0
DWIDTH 8 0
BBX 6 3 1 3
BITMAP
FC
00
FC
ENDCHAR
STARTCHAR greater
ENCODING 62
SWIDTH 368 0
DWIDTH 7 0
BBX 5 7 1 1
BITMAP
C0
60
30
18
30
60
C0
ENDCHAR
STARTCHAR question
ENCODING 63
SWIDTH 473 0
DWIDTH 9 0
BBX 6 10 1 0
BITMAP
78
8C
0C
0C
18
30
20
00
20
20
ENDCHAR
STARTCHAR A
ENCODING 65
SWIDTH 684 0
DWIDTH 13 0
BBX 13 11 0 0
BITMAP
01C0
0260
0060
00E0
01E0
0360
0660
7FE0
9860
3060
E038
ENDCHAR
STARTCHAR B
ENCODING 66
SWIDTH 526 0
DWIDTH 10 0
BBX 9 11 0 0
BITMAP
1000
7E00
B300
B300
3300
3E00
3180
3180
3180
3180
FF00
ENDCHAR
STARTCHAR C
ENCODING 67
SWIDTH 421 0
DWIDTH 8 0
BBX 7 10 0 0
BITMAP
7C
C2
C2
C4
C0
C0
C0
C2
C4
78
ENDCHAR
STARTCHAR D
ENCODING 68
SWIDTH 578 0
DWIDTH 11 0
BBX 10 11 0 0
BITMAP
1000
7F00
B180
B0C0
30C0
30C0
30C0
30C0
30C0
3080
FF00
ENDCHAR
STARTCHAR E
ENCODING 69
SWIDTH 526 0
DWIDTH 10 0
BBX 10 11 0 0
BITMAP
1000
7F80
B080
B000
3000
3E00
3000
3000
3040
3080
FF00
ENDCHAR
STARTCHAR F
ENCODING 70
SWIDTH 473 0
DWIDTH 9 0
BBX 9 11 0 0
BITMAP
1000
7F80
B080
B000
3000
3E00
3000
3000
3000
3000
E000
ENDCHAR
STARTCHAR G
ENCODING 71
SWIDTH 526 0
DWIDTH 10 0
BBX 10 10 0 0
BITMAP
3F00
6100
C200
C000
CF00
C300
C300
C740
CB80
7300
ENDCHAR
STARTCHAR H
ENCODING 72
SWIDTH 631 0
DWIDTH 12 0
BBX 12 11 0 0
BITMAP
00E0
7180
B180
B180
3180
7F80
B180
3180
3190
31A0
E1C0
ENDCHAR
STARTCHAR I
ENCODING 73
SWIDTH 421 0
DWIDTH 8 0
BBX 8 10 0 0
BITMAP
78
98
98
18
18
18
18
19
1A
1C
ENDCHAR
STARTCHAR J
ENCODING 74
SWIDTH 368 0
DWIDTH 7 0
BBX 5 14 0 -4
BITMAP
78
98
98
18
18
18
18
18
18
18
18
10
20
C0
ENDCHAR
STARTCHAR K
ENCODING 75
SWIDTH 631 0
DWIDTH 12 0
BBX 12 10 0 0
BITMAP
70C0
B180
B300
3600
3C00
3800
3C00
3610
3320
E1C0
ENDCHAR
STARTCHAR L
ENCODING 76
SWIDTH 473 0
DWIDTH 9 0
BBX 9 10 0 0
BITMAP
3800
6000
6000
6000
6000
6000
6000
6080
6100
FE00
ENDCHAR
STARTCHAR M
ENCODING 77
SWIDTH 736 0
DWIDTH 14 0
BBX 14 10 0 0
BITMAP
7070
B8E0
BD60
2E60
2460
2060
2060
2064
2068
C070
ENDCHAR
STARTCHAR N
ENCODING 78
SWIDTH 631 0
DWIDTH 12 0
BBX 11 10 0 0
BITMAP
7060
B840
BC40
2E40
2740
23C0
21C0
20C0
2040
C040
ENDCHAR
STARTCHAR O
ENCODING 79
SWIDTH 473 0
DWIDTH 9 0
BBX 8 10 0 0
BITMAP
3C
46
C3
C3
C3
C3
C3
C2
44
38
ENDCHAR
STARTCHAR P
ENCODING 80
SWIDTH 526 0
DWIDTH 10 0
BBX 9 10 0 0
BITMAP
7F00
B180
B180
3180
3180
3F00
3000
3000
3000
E000
ENDCHAR
STARTCHAR Q
ENCODING 81
SWIDTH 473 0
DWIDTH 9 0
BBX 8 12 0 -2
BITMAP
3C
46
C3
C3
C3
C3
C3
D3
4A
3C
04
02
ENDCHAR
STARTCHAR R
ENCODING 82
SWIDTH 631 0
DWIDTH 12 0
BBX 12 11 0 0
BITMAP
1000
7F00
B180
B180
3180
3180
3F00
3600
3300
3190
E0E0
ENDCHAR
STARTCHAR S
ENCODING 83
SWIDTH 421 0
DWIDTH 8 0
BBX 7 10 0 0
BITMAP
7C
C2
E4
70
38
1C
4E
86
C6
7C
ENDCHAR
STARTCHAR T
ENCODING 84
SWIDTH 473 0
DWIDTH 9 0
BBX 9 10 0 0
BITMAP
7F80
8C00
8C00
0C00
0C00
0C00
0C00
0C00
0C00
3800
ENDCHAR
STARTCHAR U
ENCODING 85
SWIDTH 578 0
DWIDTH 11 0
BBX 11 10 0 0
BITMAP
6180
E180
6180
6180
6180
6180
6380
65A0
69C0
3180
ENDCHAR
STARTCHAR V
ENCODING 86
SWIDTH 526 0
DWIDTH 10 0
BBX 9 10 0 0
BITMAP
6100
E380
6180
6180
6180
6300
6600
6C00
7800
7000
ENDCHAR
STARTCHAR W
ENCODING 87
SWIDTH 684 0
DWIDTH 13 0
BBX 12 10 0 0
BITMAP
6020
E070
6030
6030
6230
6630
6E60
76C0
6780
4700
ENDCHAR
STARTCHAR X
ENCODING 88
SWIDTH 684 0
DWIDTH 13 0
BBX 13 10 0 0
BITMAP
6030
B060
98C0
0D80
0700
0700
0D80
18C8
3068
6030
ENDCHAR
STARTCHAR Y
ENCODING 89
SWIDTH 526 0
DWIDTH 10 0
BBX 9 14 0 -4
BITMAP
6180
E180
6180
6180
6180
6180
6180
6380
6580
3980
0180
0100
0200
1C00
ENDCHAR
STARTCHAR Z
ENCODING 90
SWIDTH 473 0
DWIDTH 9 0
BBX 9 10 0 0
BITMAP
7F00
8300
8600
0C00
1800
3000
6000
C080
C100
FE00
ENDCHAR
STARTCHAR bracketleft
ENCODING 91
SWIDTH 315 0
DWIDTH 6 0
BBX 4 12 1 -1
BITMAP
F0
C0
C0
C0
C0
C0
C0
C0
C0
C0
C0
F0
ENDCHAR
STARTCHAR backslash
ENCODING 92
SWIDTH 421 0
DWIDTH 8 0
BBX 6 11 1 -1
BITMAP
80
C0
40
60
20
30
10
18
08
0C
04
ENDCHAR
STARTCHAR bracketright
ENCODING 93
SWIDTH 315 0
DWIDTH 6 0
BBX 4 12 1 -1
BITMAP
F0
30
30
30
30
30
30
30
30
30
30
F0
ENDCHAR
STARTCHAR asciicircum
ENCODING 94
SWIDTH 421 0
DWIDTH 8 0
BBX 5 3 1 6
BITMAP
20
50
88
ENDCHAR
STARTCHAR underscore
ENCODING 95
SWIDTH 473 0
DWIDTH 9 0
BBX 9 1 0 0
BITMAP
FF80
ENDCHAR
STARTCHAR grave
ENCODING 96
SWIDTH 263 0
DWIDTH 5 0
BBX 3 3 1 8
BITMAP
80
40
20
ENDCHAR
STARTCHAR a
ENCODING 97
SWIDTH 473 0
DWIDTH 9 0
BBX 9 7 0 0
BITMAP
7E00
C600
C600
C600
CE80
D700
6600
ENDCHAR
STARTCHAR b
ENCODING 98
SWIDTH 421 0
DWIDTH 8 0
BBX 7 11 0 0
BITMAP
70
C0
C0
C0
DC
E6
C6
C6
C6
CC
F8
ENDCHAR
STARTCHAR c
ENCODING 99
SWIDTH 368 0
DWIDTH 7 0
BBX 6 7 0 0
BITMAP
7C
C4
C0
C0
C4
C8
70
ENDCHAR
STARTCHAR d
ENCODING 100
SWIDTH 526 0
DWIDTH 10 0
BBX 10 11 0 0
BITMAP
0380
0600
0600
0600
7E00
C600
C600
C600
CE40
D680
6700
ENDCHAR
STARTCHAR e
ENCODING 101
SWIDTH 368 0
DWIDTH 7 0
BBX 7 7 0 0
BITMAP
7C
C4
C8
D0
E2
C4
78
ENDCHAR
STARTCHAR f
ENCODING 102
SWIDTH 368 0
DWIDTH 7 0
BBX 6 15 0 -4
BITMAP
1C
30
30
30
78
30
30
30
30
30
30
30
30
20
C0
ENDCHAR
STARTCHAR g
ENCODING 103
SWIDTH 421 0
DWIDTH 8 0
BBX 7 11 0 -4
BITMAP
7E
C6
C6
C6
CE
D6
66
06
04
08
30
ENDCHAR
STARTCHAR h
ENCODING 104
SWIDTH 473 0
DWIDTH 9 0
BBX 9 11 0 0
BITMAP
7000
C000
C000
C000
CE00
D600
E600
C600
C680
C700
C600
ENDCHAR
STARTCHAR i
ENCODING 105
SWIDTH 315 0
DWIDTH 6 0
BBX 6 10 0 0
BITMAP
20
40
00
60
E0
60
60
64
68
70
ENDCHAR
STARTCHAR j
ENCODING 106
SWIDTH 315 0
DWIDTH 6 0
BBX 4 14 0 -4
BITMAP
10
20
00
30
70
B0
30
30
30
30
30
20
40
80
ENDCHAR
STARTCHAR k
ENCODING 107
SWIDTH 473 0
DWIDTH 9 0
BBX 9 11 0 0
BITMAP
7000
C000
C000
C000
D800
E400
C400
F800
D880
CD00
C600
ENDCHAR
STARTCHAR l
ENCODING 108
SWIDTH 263 0
DWIDTH 5 0
BBX 5 11 0 0
BITMAP
70
C0
C0
C0
C0
C0
C0
C0
C8
D0
E0
ENDCHAR
STARTCHAR m
ENCODING 109
SWIDTH 789 0
DWIDTH 15 0
BBX 15 7 0 0
BITMAP
6738
EB58
7398
6318
631A
631C
6318
ENDCHAR
STARTCHAR n
ENCODING 110
SWIDTH 526 0
DWIDTH 10 0
BBX 10 7 0 0
BITMAP
6700
EB00
7300
6300
6340
6380
6300
ENDCHAR
STARTCHAR o
ENCODING 111
SWIDTH 421 0
DWIDTH 8 0
BBX 7 7 0 0
BITMAP
7C
C6
C6
C6
C6
CC
78
ENDCHAR
STARTCHAR p
ENCODING 112
SWIDTH 473 0
DWIDTH 9 0
BBX 8 11 0 -4
BITMAP
6E
F3
63
63
63
66
7C
60
60
60
C0
ENDCHAR
STARTCHAR q
ENCODING 113
SWIDTH 421 0
DWIDTH 8 0
BBX 8 11 0 -4
BITMAP
7E
C6
C6
C6
CE
D6
66
06
06
07
06
ENDCHAR
STARTCHAR r
ENCODING 114
SWIDTH 368 0
DWIDTH 7 0
BBX 6 7 0 0
BITMAP
6C
F0
60
60
60
70
60
ENDCHAR
STARTCHAR s
ENCODING 115
SWIDTH 368 0
DWIDTH 7 0
BBX 6 7 0 0
BITMAP
78
C4
C0
78
0C
8C
78
ENDCHAR
STARTCHAR t
ENCODING 116
SWIDTH 315 0
DWIDTH 6 0
BBX 6 9 0 0
BITMAP
20
60
F8
60
60
60
64
68
70
ENDCHAR
STARTCHAR u
ENCODING 117
SWIDTH 526 0
DWIDTH 10 0
BBX 10 7 0 0
BITMAP
6300
E300
6300
6300
6740
6B80
3300
ENDCHAR
STARTCHAR v
ENCODING 118
SWIDTH 473 0
DWIDTH 9 0
BBX 8 7 0 0
BITMAP
42
E7
63
62
64
68
70
ENDCHAR
STARTCHAR w
ENCODING 119
SWIDTH 736 0
DWIDTH 14 0
BBX 13 7 0 0
BITMAP
4210
E738
6318
6710
6B20
7340
6380
ENDCHAR
STARTCHAR x
ENCODING 120
SWIDTH 526 0
DWIDTH 10 0
BBX 10 7 0 0
BITMAP
6100
B200
1C00
0C00
1600
2340
4180
ENDCHAR
STARTCHAR y
ENCODING 121
SWIDTH 473 0
DWIDTH 9 0
BBX 8 11 0 -4
BITMAP
63
E3
63
63
67
6B
33
03
02
04
38
ENDCHAR
STARTCHAR z
ENCODING 122
SWIDTH 421 0
DWIDTH 8 0
BBX 8 7 0 0
BITMAP
7E
86
0C
18
30
61
FE
ENDCHAR
STARTCHAR braceleft
ENCODING 123
SWIDTH 368 0
DWIDTH 7 0
BBX 4 12 1 -2
BITMAP
30
60
60
60
60
C0
60
60
60
60
60
30
ENDCHAR
STARTCHAR bar
ENCODING 124
SWIDTH 263 0
DWIDTH 5 0
BBX 1 12 2 -2
BITMAP
80
80
80
80
80
80
80
80
80
80
80
80
ENDCHAR
STARTCHAR braceright
ENCODING 125
SWIDTH 368 0
DWIDTH 7 0
BBX 4 12 2 -2
BITMAP
C0
60
60
60
60
30
60
60
60
60
60
C0
ENDCHAR
STARTCHAR asciitilde
ENCODING 126
SWIDTH 421 0
DWIDTH 8 0
BBX 6 2 1 11
BITMAP
64
98
ENDCHAR
STARTCHAR uni007F
ENCODING 127
SWIDTH 13421 0
DWIDTH 255 0
BBX 1 1 255 -4
BITMAP
00
ENDCHAR
STARTCHAR Adieresis
ENCODING 128
SWIDTH 684 0
DWIDTH 13 0
BBX 13 13 0 0
BITMAP
0120
0000
01C0
0260
0060
00E0
01E0
0360
0660
7FE0
9860
3060
E038
ENDCHAR
STARTCHAR Aring
ENCODING 129
SWIDTH 684 0
DWIDTH 13 0
BBX 13 15 0 0
BITMAP
00C0
0120
0120
00C0
01C0
0260
0060
00E0
01E0
0360
0660
7FE0
9860
3060
E038
ENDCHAR
STARTCHAR Ccedilla
ENCODING 130
SWIDTH 421 0
DWIDTH 8 0
BBX 7 13 0 -3
BITMAP
7C
C2
C2
C4
C0
C0
C0
C2
C4
78
10
10
20
ENDCHAR
STARTCHAR Eacute
ENCODING 131
SWIDTH 526 0
DWIDTH 10 0
BBX 10 14 0 0
BITMAP
0200
0400
0000
1000
7F80
B080
B000
3000
3E00
3000
3000
3040
3080
FF00
ENDCHAR
STARTCHAR Ntilde
ENCODING 132
SWIDTH 631 0
DWIDTH 12 0
BBX 11 13 0 0
BITMAP
0C80
1300
0000
7060
B840
BC40
2E40
2740
23C0
21C0
20C0
2040
C040
ENDCHAR
STARTCHAR Odieresis
ENCODING 133
SWIDTH 473 0
DWIDTH 9 0
BBX 8 13 0 0
BITMAP
24
00
00
3C
46
C3
C3
C3
C3
C3
C2
44
38
ENDCHAR
STARTCHAR Udieresis
ENCODING 134
SWIDTH 578 0
DWIDTH 11 0
BBX 11 13 0 0
BITMAP
1200
0000
0000
6180
E180
6180
6180
6180
6180
6380
65A0
69C0
3180
ENDCHAR
STARTCHAR aacute
ENCODING 135
SWIDTH 473 0
DWIDTH 9 0
BBX 9 11 0 0
BITMAP
0800
1000
0000
0000
7E00
C600
C600
C600
CE80
D700
6600
ENDCHAR
STARTCHAR agrave
ENCODING 136
SWIDTH 473 0
DWIDTH 9 0
BBX 9 11 0 0
BITMAP
1000
0800
0000
0000
7E00
C600
C600
C600
CE80
D700
6600
ENDCHAR
STARTCHAR acircumflex
ENCODING 137
SWIDTH 473 0
DWIDTH 9 0
BBX 9 12 0 0
BITMAP
1000
2800
4400
0000
0000
7E00
C600
C600
C600
CE80
D700
6600
ENDCHAR
STARTCHAR adieresis
ENCODING 138
SWIDTH 473 0
DWIDTH 9 0
BBX 9 10 0 0
BITMAP
2400
0000
0000
7E00
C600
C600
C600
CE80
D700
6600
ENDCHAR
STARTCHAR atilde
ENCODING 139
SWIDTH 473 0
DWIDTH 9 0
BBX 9 11 0 0
BITMAP
3200
4C00
0000
0000
7E00
C600
C600
C600
CE80
D700
6600
ENDCHAR
STARTCHAR aring
ENCODING 140
SWIDTH 473 0
DWIDTH 9 0
BBX 9 12 0 0
BITMAP
1800
2400
2400
1800
0000
7E00
C600
C600
C600
CE80
D700
6600
ENDCHAR
STARTCHAR ccedilla
ENCODING 141
SWIDTH 368 0
DWIDTH 7 0
BBX 6 10 0 -3
BITMAP
7C
C4
C0
C0
C4
C8
70
10
10
20
ENDCHAR
STARTCHAR eacute
ENCODING 142
SWIDTH 368 0
DWIDTH 7 0
BBX 7 11 0 0
BITMAP
08
10
00
00
7C
C4
C8
D0
E2
C4
78
ENDCHAR
STARTCHAR egrave
ENCODING 143
SWIDTH 368 0
DWIDTH 7 0
BBX 7 11 0 0
BITMAP
20
10
00
00
7C
C4
C8
D0
E2
C4
78
ENDCHAR
STARTCHAR ecircumflex
ENCODING 144
SWIDTH 368 0
DWIDTH 7 0
BBX 7 12 0 0
BITMAP
10
28
44
00
00
7C
C4
C8
D0
E2
C4
78
ENDCHAR
STARTCHAR edieresis
ENCODING 145
SWIDTH 368 0
DWIDTH 7 0
BBX 7 10 0 0
BITMAP
48
00
00
7C
C4
C8
D0
E2
C4
78
ENDCHAR
STARTCHAR iacute
ENCODING 146
SWIDTH 315 0
DWIDTH 6 0
BBX 6 11 0 0
BITMAP
20
40
00
00
60
E0
60
60
64
68
70
ENDCHAR
STARTCHAR igrave
ENCODING 147
SWIDTH 315 0
DWIDTH 6 0
BBX 6 11 0 0
BITMAP
40
20
00
00
60
E0
60
60
64
68
70
ENDCHAR
STARTCHAR icircumflex
ENCODING 148
SWIDTH 315 0
DWIDTH 6 0
BBX 6 12 0 0
BITMAP
20
50
88
00
00
60
E0
60
60
64
68
70
ENDCHAR
STARTCHAR idieresis
ENCODING 149
SWIDTH 315 0
DWIDTH 6 0
BBX 6 10 0 0
BITMAP
90
00
00
60
E0
60
60
64
68
70
ENDCHAR
STARTCHAR ntilde
ENCODING 150
SWIDTH 526 0
DWIDTH 10 0
BBX 10 11 0 0
BITMAP
1900
2600
0000
0000
6700
EB00
7300
6300
6340
6380
6300
ENDCHAR
STARTCHAR oacute
ENCODING 151
SWIDTH 421 0
DWIDTH 8 0
BBX 7 11 0 0
BITMAP
08
10
00
00
7C
C6
C6
C6
C6
CC
78
ENDCHAR
STARTCHAR ograve
ENCODING 152
SWIDTH 421 0
DWIDTH 8 0
BBX 7 11 0 0
BITMAP
20
10
00
00
7C
C6
C6
C6
C6
CC
78
ENDCHAR
STARTCHAR ocircumflex
ENCODING 153
SWIDTH 421 0
DWIDTH 8 0
BBX 7 12 0 0
BITMAP
10
28
44
00
00
7C
C6
C6
C6
C6
CC
78
ENDCHAR
STARTCHAR odieresis
ENCODING 154
SWIDTH 421 0
DWIDTH 8 0
BBX 7 10 0 0
BITMAP
24
00
00
7C
C6
C6
C6
C6
CC
78
ENDCHAR
STARTCHAR otilde
ENCODING 155
SWIDTH 421 0
DWIDTH 8 0
BBX 7 11 0 0
BITMAP
32
4C
00
00
7C
C6
C6
C6
C6
CC
78
ENDCHAR
STARTCHAR uacute
ENCODING 156
SWIDTH 526 0
DWIDTH 10 0
BBX 10 11 0 0
BITMAP
0800
1000
0000
0000
6300
E300
6300
6300
6740
6B80
3300
ENDCHAR
STARTCHAR ugrave
ENCODING 157
SWIDTH 526 0
DWIDTH 10 0
BBX 10 11 0 0
BITMAP
1000
0800
0000
0000
6300
E300
6300
6300
6740
6B80
3300
ENDCHAR
STARTCHAR ucircumflex
ENCODING 158
SWIDTH 526 0
DWIDTH 10 0
BBX 10 12 0 0
BITMAP
0800
1400
2200
0000
0000
6300
E300
6300
6300
6740
6B80
3300
ENDCHAR
STARTCHAR udieresis
ENCODING 159
SWIDTH 526 0
DWIDTH 10 0
BBX 10 10 0 0
BITMAP
2400
0000
0000
6300
E300
6300
6300
6740
6B80
3300
ENDCHAR
STARTCHAR germandbls
ENCODING 167
SWIDTH 526 0
DWIDTH 10 0
BBX 9 10 0 0
BITMAP
1E00
3300
3300
3300
3600
3100
3180
3180
3300
E600
ENDCHAR
STARTCHAR acute
ENCODING 171
SWIDTH 263 0
DWIDTH 5 0
BBX 3 3 1 8
BITMAP
20
40
80
ENDCHAR
STARTCHAR AE
ENCODING 174
SWIDTH 1105 0
DWIDTH 21 0
BBX 17 11 0 0
BITMAP
01C000
027F00
006100
00E000
01E000
037C00
066000
7FE000
986080
306100
E1FE00
ENDCHAR
STARTCHAR Oslash
ENCODING 175
SWIDTH 473 0
DWIDTH 9 0
BBX 8 10 0 0
BITMAP
3D
42
C7
CB
CB
D3
D3
E2
44
B8
ENDCHAR
STARTCHAR ae
ENCODING 190
SWIDTH 631 0
DWIDTH 12 0
BBX 12 7 0 0
BITMAP
7DE0
C620
C640
C680
CF10
D620
63C0
ENDCHAR
STARTCHAR oslash
ENCODING 191
SWIDTH 421 0
DWIDTH 8 0
BBX 7 7 0 0
BITMAP
7C
C6
CE
D6
E6
CC
78
ENDCHAR
STARTCHAR questiondown
ENCODING 192
SWIDTH 473 0
DWIDTH 9 0
BBX 6 10 1 0
BITMAP
10
10
00
10
30
60
C0
C0
C4
78
ENDCHAR
STARTCHAR exclamdown
ENCODING 193
SWIDTH 263 0
DWIDTH 5 0
BBX 2 10 1 0
BITMAP
C0
C0
00
C0
C0
C0
C0
C0
C0
C0
ENDCHAR
STARTCHAR guillemotleft
ENCODING 199
SWIDTH 526 0
DWIDTH 10 0
BBX 7 7 1 0
BITMAP
12
24
48
90
48
24
12
ENDCHAR
STARTCHAR guillemotright
ENCODING 200
SWIDTH 526 0
DWIDTH 10 0
BBX 7 7 2 0
BITMAP
90
48
24
12
24
48
90
ENDCHAR
STARTCHAR uni00A0
ENCODING 202
SWIDTH 421 0
DWIDTH 8 0
BBX 1 1 8 -4
BITMAP
00
ENDCHAR
STARTCHAR Agrave
ENCODING 203
SWIDTH 684 0
DWIDTH 13 0
BBX 13 14 0 0
BITMAP
0080
0040
0000
01C0
0260
0060
00E0
01E0
0360
0660
7FE0
9860
3060
E038
ENDCHAR
STARTCHAR Atilde
ENCODING 204
SWIDTH 684 0
DWIDTH 13 0
BBX 13 14 0 0
BITMAP
0320
04C0
0000
01C0
0260
0060
00E0
01E0
0360
0660
7FE0
9860
3060
E038
ENDCHAR
STARTCHAR Otilde
ENCODING 205
SWIDTH 473 0
DWIDTH 9 0
BBX 8 13 0 0
BITMAP
32
4C
00
3C
46
C3
C3
C3
C3
C3
C2
44
38
ENDCHAR
STARTCHAR OE
ENCODING 206
SWIDTH 736 0
DWIDTH 14 0
BBX 14 10 0 0
BITMAP
3FF8
4708
C300
C300
C3E0
C300
C300
C304
4708
3BF0
ENDCHAR
STARTCHAR oe
ENCODING 207
SWIDTH 631 0
DWIDTH 12 0
BBX 12 7 0 0
BITMAP
7DE0
C620
C640
C680
C710
CE20
79C0
ENDCHAR
STARTCHAR endash
ENCODING 208
SWIDTH 473 0
DWIDTH 9 0
BBX 7 1 1 5
BITMAP
FE
ENDCHAR
STARTCHAR emdash
ENCODING 209
SWIDTH 631 0
DWIDTH 12 0
BBX 10 1 1 5
BITMAP
FFC0
ENDCHAR
STARTCHAR quotedblleft
ENCODING 210
SWIDTH 421 0
DWIDTH 8 0
BBX 5 4 1 6
BITMAP
48
90
D8
D8
ENDCHAR
STARTCHAR quotedblright
ENCODING 211
SWIDTH 421 0
DWIDTH 8 0
BBX 5 4 2 6
BITMAP
D8
D8
48
90
ENDCHAR
STARTCHAR quoteleft
ENCODING 212
SWIDTH 263 0
DWIDTH 5 0
BBX 2 4 1 6
BITMAP
40
80
C0
C0
ENDCHAR
STARTCHAR quoteright
ENCODING 213
SWIDTH 263 0
DWIDTH 5 0
BBX 2 4 2 6
BITMAP
C0
C0
40
80
ENDCHAR
STARTCHAR ydieresis
ENCODING 216
SWIDTH 473 0
DWIDTH 9 0
BBX 8 14 0 -4
BITMAP
24
00
00
63
E3
63
63
67
6B
33
03
02
04
38
ENDCHAR
STARTCHAR Ydieresis
ENCODING 217
SWIDTH 368 0
DWIDTH 7 0
BBX 7 5 0 0
BITMAP
70
98
CE
64
38
ENDCHAR
ENDFONT
